<svg width="28" height="26" viewBox="0 0 28 26" fill="none" xmlns="http://www.w3.org/2000/svg">
    <path d="M5.26928e-05 0.0410805C0.0141905 0.0764246 1.06039 1.33469 2.31865 2.8333L4.60898 5.56896L11.3315 5.59724C16.2161 5.61844 18.1601 5.64672 18.4428 5.71034C20.514 6.16275 21.3411 7.12412 21.2562 8.9691C21.228 9.50634 21.1856 9.73255 21.023 10.0789C20.7826 10.6232 20.2313 11.1675 19.6657 11.4149C19.4395 11.5139 19.2416 11.6129 19.2275 11.627C19.1921 11.6553 19.1568 11.6129 21.228 14.0799L22.6983 15.833L23.1648 15.5715C25.6531 14.2142 27.0033 12.037 27.18 9.13169C27.2931 7.25136 26.8407 5.40638 25.9288 4.0138C24.5221 1.87193 22.0904 0.606592 18.4782 0.125907C17.7218 0.0269423 -0.0352918 -0.0508156 5.26928e-05 0.0410805Z" fill="url(#paint0_linear_16_13)"/>
    <path d="M4.35454 11.9167C4.32626 11.9379 4.30505 14.928 4.30505 18.5615V25.1567H7.09727H9.88949V21.1982V17.2396H12.1374H14.3853L17.6936 21.1982L21.0089 25.1567H24.508H28L27.689 24.7821C27.3992 24.4428 25.4906 22.1666 19.3477 14.822L16.8736 11.8672H10.6388C7.2033 11.8672 4.37574 11.8884 4.35454 11.9167Z" fill="url(#paint1_linear_16_13)"/>
    <mask id="mask0_16_13" style="mask-type:alpha" maskUnits="userSpaceOnUse" x="0" y="0" width="28" height="26">
        <rect width="27.9929" height="25.183" fill="url(#paint2_linear_16_13)"/>
    </mask>
    <g mask="url(#mask0_16_13)">
    </g>
    <defs>
        <linearGradient id="paint0_linear_16_13" x1="14.0842" y1="18.6622" x2="13.6607" y2="-0.504208" gradientUnits="userSpaceOnUse">
            <stop stop-color="#F07B3F"/>
            <stop offset="1" stop-color="#EA5455"/>
        </linearGradient>
        <linearGradient id="paint1_linear_16_13" x1="16.5757" y1="27.5315" x2="16.2332" y2="11.4433" gradientUnits="userSpaceOnUse">
            <stop stop-color="#F07B3F"/>
            <stop offset="1" stop-color="#EA5455"/>
        </linearGradient>
        <linearGradient id="paint2_linear_16_13" x1="14.4963" y1="-4.5" x2="13.456" y2="25.9645" gradientUnits="userSpaceOnUse">
            <stop stop-color="#F07B3F"/>
            <stop offset="1" stop-color="#EA5455"/>
        </linearGradient>
    </defs>
</svg>
