<svg width="16" height="18" viewBox="0 0 16 18" fill="none" xmlns="http://www.w3.org/2000/svg">
<path d="M6.10862 1.32365C7.16695 0.482816 8.65029 0.449482 9.74112 1.22365L9.87529 1.32365L14.9495 5.38282C15.5078 5.81532 15.8503 6.45782 15.9086 7.15698L15.917 7.32448L15.917 14.082C15.917 15.8237 14.5411 17.2403 12.817 17.332H11.1586C10.3661 17.3161 9.72529 16.6995 9.66695 15.9245L9.65862 15.807V13.4245C9.65862 13.1653 9.46612 12.9495 9.20862 12.907L9.13362 12.8986H6.90779C6.64195 12.907 6.42529 13.0986 6.39195 13.3486L6.38362 13.4245V15.7995C6.38362 15.8486 6.37445 15.907 6.36695 15.9486L6.35862 15.9661L6.34945 16.0237C6.25029 16.7328 5.66695 17.2736 4.94195 17.3245L4.83362 17.332H3.34195C1.60028 17.332 0.175285 15.9661 0.0836182 14.2486L0.0836182 7.32448C0.0911182 6.61532 0.400285 5.95698 0.916951 5.49865L6.10862 1.32365ZM9.15029 2.23198C8.51695 1.72365 7.61695 1.69948 6.95029 2.14032L6.82445 2.23198L1.75778 6.31615C1.46695 6.53198 1.29195 6.85698 1.25028 7.19865L1.24112 7.33198L1.24112 14.082C1.24112 15.1903 2.10778 16.0987 3.20862 16.1653H4.83362C5.01695 16.1653 5.17529 16.0411 5.19945 15.8661L5.21695 15.7161L5.22529 15.6737V13.4245C5.22529 12.5328 5.90862 11.8078 6.78362 11.7403H9.13362C10.0245 11.7403 10.7495 12.4245 10.817 13.2995V15.807C10.817 15.982 10.942 16.1328 11.1086 16.1653H12.6578C13.7745 16.1653 14.6828 15.3078 14.7495 14.2153L14.7586 14.082L14.7586 7.33198C14.7495 6.97448 14.6003 6.64032 14.342 6.39115L14.2336 6.29865L9.15029 2.23198Z" fill="white"/>
</svg>
