<svg width="21" height="20" viewBox="0 0 21 20" fill="none" xmlns="http://www.w3.org/2000/svg">
<path d="M9.51864 0C11.9515 0 13.9371 1.87393 14.0486 4.22624L14.0535 4.435V5.368C14.0535 5.78221 13.7102 6.118 13.2866 6.118C12.8984 6.118 12.5775 5.83585 12.5267 5.46977L12.5197 5.368V4.435C12.5197 2.8721 11.2702 1.59426 9.69496 1.50498L9.51864 1.5L4.53385 1.5C2.93662 1.5 1.63016 2.72213 1.53887 4.26258L1.53378 4.435L1.53378 15.565C1.53378 17.1278 2.7832 18.4057 4.35763 18.495L4.53385 18.5H9.52886C11.1213 18.5 12.4237 17.2824 12.5147 15.7478L12.5197 15.576V14.633C12.5197 14.2188 12.8631 13.883 13.2866 13.883C13.6749 13.883 13.9957 14.1652 14.0465 14.5312L14.0535 14.633V15.576C14.0535 17.9472 12.1447 19.8831 9.74804 19.9949L9.52886 20H4.53385C2.10184 20 0.116404 18.1259 0.00493588 15.7737L0 15.565L0 4.435C0 2.05594 1.91595 0.113862 4.32046 0.00482809L4.53385 0L9.51864 0ZM17.6938 6.48086L17.7799 6.55329L20.7739 9.46829C20.8008 9.49445 20.8245 9.52108 20.8462 9.54924L20.7739 9.46829C20.8051 9.4987 20.8331 9.53109 20.8579 9.56505C20.8753 9.5888 20.8915 9.6139 20.9061 9.63994C20.9087 9.645 20.9114 9.64997 20.9141 9.65496C20.927 9.67894 20.9385 9.70381 20.9486 9.72936C20.9527 9.74054 20.9569 9.75186 20.9607 9.76324C20.9682 9.78427 20.9745 9.80591 20.9797 9.82793C20.9822 9.8397 20.9847 9.85137 20.9869 9.86309C20.9911 9.88353 20.9942 9.90462 20.9963 9.92597C20.9975 9.94082 20.9985 9.95553 20.9991 9.97025C20.9998 9.98012 21 9.98999 21 9.9999L20.9991 10.0282C20.9986 10.0436 20.9975 10.059 20.9959 10.0743L21 9.9999C21 10.0467 20.9956 10.0926 20.9872 10.1371C20.9847 10.1482 20.9822 10.1599 20.9794 10.1715C20.9743 10.1947 20.9677 10.2172 20.9601 10.2392C20.9562 10.2494 20.9524 10.2598 20.9484 10.27C20.9389 10.2949 20.9278 10.319 20.9155 10.3424C20.9125 10.3477 20.9093 10.3536 20.906 10.3595C20.8708 10.4228 20.8267 10.4801 20.7754 10.5302L17.78 13.4472C17.4799 13.7395 16.9944 13.7385 16.6955 13.445C16.4238 13.1782 16.3999 12.7615 16.6233 12.4684L16.6977 12.3844L18.3737 10.749L7.92095 10.7499C7.49741 10.7499 7.15406 10.4141 7.15406 9.9999C7.15406 9.62021 7.44257 9.30641 7.81689 9.25675L7.92095 9.2499L18.3757 9.249L16.6978 7.61631C16.4249 7.35064 16.3992 6.93403 16.6213 6.63993L16.6954 6.55565C16.967 6.28879 17.393 6.26366 17.6938 6.48086Z" fill="#EA736D"/>
</svg>
