<svg width="17" height="20" viewBox="0 0 17 20" fill="none" xmlns="http://www.w3.org/2000/svg">
<path d="M11.6723 0C14.9262 0 17 1.43503 17 4.25765L17 18.3309C17 18.7736 16.8178 19.1982 16.4934 19.5112C16.169 19.8242 15.729 20 15.2583 20C14.9776 19.9957 14.7016 19.9291 14.4355 19.7971L8.47237 16.6635L2.53344 19.8037C1.81815 20.1624 0.951411 19.9969 0.408327 19.3975L0.304167 19.2719L0.204665 19.1174C0.0748165 18.8782 0.00476281 18.613 0 18.3309L0 4.43434C0 1.49929 2.02847 0 5.32773 0L11.6723 0ZM11.6723 1.44775L5.32773 1.44775C2.78295 1.44775 1.5003 2.39579 1.5003 4.43434L1.5002 18.3189C1.50096 18.3631 1.51242 18.4065 1.49996 18.3897L1.53976 18.4519C1.60834 18.5421 1.73703 18.5715 1.82709 18.5265L7.76351 15.3883C8.20597 15.1576 8.7391 15.1576 9.18372 15.3894L15.1366 18.5173C15.1817 18.5397 15.2315 18.5517 15.2702 18.5523C15.3311 18.5523 15.3895 18.529 15.4325 18.4875C15.4755 18.446 15.4997 18.3897 15.4997 18.3309L15.4997 4.25765C15.4997 2.35788 14.1844 1.44775 11.6723 1.44775ZM12.1209 6.31663C12.5352 6.31663 12.871 6.64072 12.871 7.0405C12.871 7.40697 12.5888 7.70984 12.2227 7.75777L12.1209 7.76438L4.8242 7.76438C4.4099 7.76438 4.07405 7.44029 4.07405 7.0405C4.07405 6.67404 4.35626 6.37117 4.72241 6.32324L4.8242 6.31663L12.1209 6.31663Z" fill="#EA736D"/>
</svg>
