<svg width="21" height="20" viewBox="0 0 21 20" fill="none" xmlns="http://www.w3.org/2000/svg">
<path d="M7.97083 12.5458L8.30661 12.5473C13.1834 12.5897 15.9427 13.574 15.9427 16.2624C15.9427 18.8939 13.2982 19.9091 8.6346 19.9941L7.97083 20C2.8841 20 0 19.0337 0 16.2834C0 13.5295 2.89557 12.5458 7.97083 12.5458ZM7.97083 14.1198C3.75246 14.1198 1.57505 14.8595 1.57505 16.2834C1.57505 17.6983 3.74724 18.4261 7.97083 18.4261C12.1895 18.4261 14.3676 17.6863 14.3676 16.2624C14.3676 14.8483 12.1935 14.1198 7.97083 14.1198ZM16.3666 11.8028C16.9762 11.8442 17.5823 11.9315 18.1647 12.0606C19.4122 12.3085 20.3397 12.7714 20.7647 13.6624C21.0784 14.3221 21.0784 15.0897 20.7647 15.7493C20.3421 16.6381 19.4243 17.0976 18.1697 17.3555C17.7437 17.4431 17.3273 17.1689 17.2397 16.7432C17.1521 16.3175 17.4264 15.9014 17.8524 15.8138C18.6597 15.6479 19.197 15.3789 19.3421 15.0737C19.4525 14.8415 19.4525 14.5703 19.3425 14.3389C19.1964 14.0326 18.6563 13.763 17.8408 13.6008C17.3186 13.4852 16.7906 13.4092 16.2597 13.3731C15.8258 13.3436 15.4979 12.9681 15.5274 12.5345C15.557 12.1009 15.9327 11.7733 16.3666 11.8028ZM7.97083 0C10.9614 0 13.3628 2.39931 13.3628 5.38706C13.3628 8.37566 10.9616 10.7752 7.97083 10.7752C4.98024 10.7752 2.57994 8.37581 2.57994 5.38706C2.57994 2.39917 4.98043 0 7.97083 0ZM14.7212 1.12232C17.0679 1.12232 18.9707 3.02413 18.9707 5.3688C18.9707 7.71419 17.0683 9.61528 14.7212 9.61528C14.2863 9.61528 13.9337 9.26294 13.9337 8.82831C13.9337 8.39368 14.2863 8.04134 14.7212 8.04134C16.1984 8.04134 17.3956 6.84493 17.3956 5.3688C17.3956 3.89332 16.198 2.69626 14.7212 2.69626C14.2863 2.69626 13.9337 2.34392 13.9337 1.90929C13.9337 1.47466 14.2863 1.12232 14.7212 1.12232ZM7.97083 1.57394C5.85037 1.57394 4.15499 3.26837 4.15499 5.38706C4.15499 7.50666 5.85023 9.20123 7.97083 9.20123C10.0917 9.20123 11.7877 7.5064 11.7877 5.38706C11.7877 3.26863 10.0915 1.57394 7.97083 1.57394Z" fill="#EA736D"/>
</svg>
